<svg width="516" height="1870" fill="none" xmlns="http://www.w3.org/2000/svg"><path d="M516 918c0 132.55-107.452 240-240 240S36 1050.55 36 918c0-132.548 107.452-240 240-240s240 107.452 240 240z" fill="#FFDBDB"/><path d="M411.868 840.129c7.684 76.518-31.827 90.797-121.303 103.873-81.863 32.673-136.554 45.706-171.429-26.984-23.14-69.132 21.962-130.73 108.901-159.83 86.939-29.099 168.564 12.125 183.831 82.941z" fill="#F9F7F7"/><path d="M165.93 910.775c-10.58-9.708-2.825-30.906 10.21-45.111 13.034-14.205 24.129-15.922 34.709-6.213 10.581 9.708 15.904 21.124 2.869 35.329-13.035 14.206-37.208 25.704-47.788 15.995zM358.47 750.541c-4.125 16.616-16.168 9.381-32.249 5.39-16.08-3.991-30.109-3.227-25.985-19.844 4.125-16.617 20.504-26.851 36.585-22.86 16.08 3.991 25.773 20.697 21.649 37.314zM181.824 763.174c10.732 15.56-2.907 19.441-16.546 28.849-13.639 9.407-22.112 20.778-32.845 5.218-10.733-15.56-8.377-35.8 5.262-45.207 13.639-9.408 33.396-4.42 44.129 11.14zM367.027 845.283c1.326 14.298-16.081 10.107-35.604 11.917-19.522 1.81-30.969-.742-32.295-15.04-1.326-14.298 8.987-23.975 28.51-25.785 19.522-1.81 38.063 14.61 39.389 28.908z" fill="#C4C4C4"/><circle cx="322.227" cy="845.227" r="6.5" transform="rotate(-18.506 322.227 845.227)" fill="#4B4B4B"/><path d="M178.718 928.421c2.91 4.694-4.751 12.051-12.731 16.998-7.979 4.948-16.807 5.153-19.718.459-2.91-4.693 1.2-12.509 9.179-17.457 7.98-4.947 20.359-4.694 23.27 0z" fill="#FFD7D7"/><path d="M386.54 968.106c7 60.004-49.629 151.374-94.873 169.564-69.762 28.05-31.507-82.07-72.084-128.74-21.22-52.784 55.23-33.277 95.662-56.813 40.432-23.536 71.295-12.011 71.295 15.989z" fill="#C4C4C4"/><path stroke="#F8F8F8" d="M269.628 1048.67l62-69.004M257.623 1036.67l60-68.998"/><circle cx="181.227" cy="888.227" r="6.5" transform="rotate(-18.506 181.227 888.227)" fill="#4B4B4B"/><path d="M410.094 867.565c1.43 5.66-7.576 10.351-16.235 12.54-8.659 2.188-16.838-.625-18.269-6.285-1.43-5.659 4.43-12.021 13.089-14.21 8.659-2.188 19.985 2.296 21.415 7.955z" fill="#FFD7D7"/><path stroke="#F8F8F8" d="M296.635 1097.66l60-64"/><path stroke="#000" d="M172.841 884.635l33.19-11.109"/><path d="M285.889 1080.3l-2.322 2.64-12.813-11.27 2.321-2.64 12.814 11.27zm6.735-16.27c1.292 1.31 1.928 2.78 1.91 4.39-.013 1.62-.679 3.17-2 4.67-1.444 1.65-3.133 2.46-5.067 2.43-1.934-.04-3.866-.9-5.797-2.6l-.783-.69c-1.232-1.08-2.127-2.25-2.684-3.51-.556-1.26-.731-2.51-.523-3.76.208-1.25.781-2.41 1.72-3.48 1.3-1.48 2.743-2.32 4.329-2.53 1.587-.2 3.158.25 4.713 1.37l-2.321 2.64c-.884-.66-1.687-.96-2.407-.88-.721.06-1.438.5-2.15 1.31-.773.88-1.037 1.81-.79 2.81.246.99 1.027 2.07 2.342 3.25l.968.85c1.385 1.22 2.58 1.9 3.586 2.04 1.011.14 1.914-.24 2.708-1.14.717-.82 1.066-1.59 1.047-2.31-.019-.74-.393-1.48-1.122-2.22l2.321-2.64zm7.019-10.57l-4.457 5.07 3.432 3.01 5.231-5.95 2.121 1.87-7.553 8.59-12.813-11.27 7.537-8.57 2.138 1.88-5.215 5.93 3.053 2.69 4.458-5.07 2.068 1.82zm9.442-8.65l4.515 3.97-2.322 2.64-12.813-11.26 4.395-5c.846-.97 1.765-1.66 2.757-2.07.996-.43 1.993-.55 2.99-.37.991.17 1.9.62 2.728 1.35 1.255 1.11 1.867 2.41 1.837 3.91-.032 1.49-.716 3-2.052 4.52l-2.035 2.31zm-2.139-1.88l2.074-2.36c.614-.7.917-1.37.908-2.02-.003-.66-.31-1.26-.92-1.8-.628-.55-1.298-.81-2.01-.78-.713.03-1.361.36-1.945 1.01l-2.128 2.42 4.021 3.53zm16.905-11.13l-4.07 4.63 1.866 3.2-2.468 2.81-8.62-16.04 2.152-2.45 17.031 6.47-2.469 2.81-3.422-1.43zm-5.582 2.03l2.817-3.2-6.212-2.61 3.395 5.81zm21.687-15.02l-2.321 2.64-12.95-2.28 8.43 7.42-2.321 2.64-12.814-11.27 2.322-2.64 12.975 2.28-8.448-7.43 2.314-2.63 12.813 11.27zm2.027-2.31l-12.813-11.27 3.467-3.94c.99-1.12 2.13-1.906 3.42-2.343 1.288-.448 2.621-.509 3.998-.182 1.372.321 2.653 1.006 3.844 2.055l.59.52c1.191 1.04 2.033 2.22 2.527 3.53a6.96 6.96 0 01.337 3.96c-.274 1.34-.9 2.58-1.88 3.7l-3.49 3.97zm-8.353-12.03l8.554 7.53 1.122-1.28c.908-1.03 1.265-2.12 1.07-3.26-.195-1.14-.915-2.26-2.161-3.38l-.677-.59c-1.303-1.15-2.526-1.75-3.669-1.79-1.149-.06-2.181.43-3.094 1.47l-1.145 1.3zm22.211-9.053l-4.07 4.633 1.866 3.2-2.468 2.81-8.62-16.041 2.152-2.447 17.03 6.471-2.468 2.807-3.422-1.433zm-5.582 2.036l2.817-3.203-6.212-2.607 3.395 5.81z" fill="#fff"/><path stroke="#000" d="M313.841 840.635l33.19-11.109"/></svg>